<svg xmlns="http://www.w3.org/2000/svg" viewBox="0 0 256 256">
  <rect width="256" height="256" fill="#1a1a1a"/>
  <circle cx="128" cy="128" r="90" fill="#FF6600" opacity="0.2"/>
  <circle cx="128" cy="140" r="70" fill="#0066CC" stroke="#FF6600" stroke-width="6"/>
  <circle cx="128" cy="140" r="60" fill="#1a1a1a"/>
  <line x1="128" y1="140" x2="128" y2="100" stroke="#FF6600" stroke-width="6" stroke-linecap="round"/>
  <line x1="128" y1="140" x2="155" y2="125" stroke="#0066CC" stroke-width="5" stroke-linecap="round"/>
  <circle cx="128" cy="140" r="8" fill="#FF6600"/>
  <rect x="110" y="50" width="36" height="20" rx="4" fill="#FF6600"/>
  <circle cx="128" cy="50" r="6" fill="#1a1a1a"/>
  <path d="M 200 100 L 215 95 L 220 110 L 210 120 L 220 130 L 215 145 L 200 140 L 190 150 L 180 140 L 185 125 L 175 115 L 180 100 Z" fill="#0066CC" opacity="0.8"/>
  <path d="M 56 100 L 41 95 L 36 110 L 46 120 L 36 130 L 41 145 L 56 140 L 66 150 L 76 140 L 71 125 L 81 115 L 76 100 Z" fill="#FF6600" opacity="0.8"/>
  <line x1="128" y1="85" x2="128" y2="90" stroke="#FF6600" stroke-width="3"/>
  <line x1="128" y1="190" x2="128" y2="195" stroke="#FF6600" stroke-width="3"/>
  <line x1="73" y1="140" x2="78" y2="140" stroke="#FF6600" stroke-width="3"/>
  <line x1="178" y1="140" x2="183" y2="140" stroke="#FF6600" stroke-width="3"/>
</svg>